<svg xmlns="http://www.w3.org/2000/svg" viewBox="0 0 64 64" width="64" height="64">
  <polygon points="14,18 12,4 24,14" fill="#666"/>
  <polygon points="50,18 52,4 40,14" fill="#666"/>
  <polygon points="16,16 16,8 22,14" fill="#f4a4b4"/>
  <polygon points="48,16 48,8 42,14" fill="#f4a4b4"/>
  <ellipse cx="32" cy="36" rx="22" ry="20" fill="#777"/>
  <ellipse cx="24" cy="32" rx="3" ry="5" fill="#a4d65e"/>
  <ellipse cx="40" cy="32" rx="3" ry="5" fill="#a4d65e"/>
  <ellipse cx="24" cy="32" rx="1" ry="4" fill="#222"/>
  <ellipse cx="40" cy="32" rx="1" ry="4" fill="#222"/>
  <polygon points="32,40 30,42 34,42" fill="#f4a4b4"/>
  <line x1="14" y1="42" x2="22" y2="42" stroke="#444" stroke-width="1"/>
  <line x1="14" y1="44" x2="22" y2="43" stroke="#444" stroke-width="1"/>
  <line x1="50" y1="42" x2="42" y2="42" stroke="#444" stroke-width="1"/>
  <line x1="50" y1="44" x2="42" y2="43" stroke="#444" stroke-width="1"/>
</svg>
